# xmcd
#
# Track frame offsets:
# 180
# 14652
# 30107
# 47201
# 72218
# 88056
# 117460
# 139108
# 150013
# 166324
# 186386
# 199063
# 210907
#
# Disc length: 3018 seconds
#
#
# Revision: 0
# Processed by: cddbd v1.5.2PL0 Copyright (c) Steve Scherf et al.
# Submitted via: Nero 7, 11, 10, 0 
#
DISCID=a80bc80d
DTITLE=Little Red and The Big Blues Band - Le Petit Rouge
DYEAR=1996
DGENRE=Blues
TTITLE0=Pain In My Heart
TTITLE1=Spend Some Time
TTITLE2=Sen-Sa-Shun
TTITLE3=It's No Use
TTITLE4=Can't Get Enuf
TTITLE5=Watchamacallit
TTITLE6=Let The Good Times Roll
TTITLE7=The Rufus Special
TTITLE8=Don't Want Nobody
TTITLE9=Duke's Blues
TTITLE10=Take You Back Home
TTITLE11=Saturday Night Rub
TTITLE12=Really Tubular
EXTD=
EXTT0=Pain In My Heart
EXTT1=Spend Some Time
EXTT2=Sen-Sa-Shun
EXTT3=It's No Use
EXTT4=Can't Get Enuf
EXTT5=Watchamacallit
EXTT6=Let The Good Times Roll
EXTT7=The Rufus Special
EXTT8=Don't Want Nobody
EXTT9=Duke's Blues
EXTT10=Take You Back Home
EXTT11=Saturday Night Rub
EXTT12=Really Tubular
PLAYORDER=
